HIERARCHY
ROOT joint_Root
{
	OFFSET 0.0 0.0 0.0
	CHANNELS 6 Xposition Yposition Zposition Zrotation Xrotation Yrotation 
	JOINT Hips
	{
		OFFSET -17.1583 93.1646 452.98
		CHANNELS 6 Xposition Yposition Zposition Zrotation Xrotation Yrotation 
		JOINT Spine
		{
			OFFSET 15.7357 0.0 0.0
			CHANNELS 6 Xposition Yposition Zposition Zrotation Xrotation Yrotation 
			JOINT Chest
			{
				OFFSET 8.98455 -0.406207 0.0
				CHANNELS 6 Xposition Yposition Zposition Zrotation Xrotation Yrotation 
				JOINT Neck
				{
					OFFSET 16.3773 0.0 0.0
					CHANNELS 6 Xposition Yposition Zposition Zrotation Xrotation Yrotation 
					JOINT Head
					{
						OFFSET 6.45672 0.0 0.0
						CHANNELS 6 Xposition Yposition Zposition Zrotation Xrotation Yrotation 
						End Site
						{
							OFFSET 0.0 0.0 0.0
						}
					}
				}
				JOINT Shoulder_L
				{
					OFFSET 12.9942 -0.242716 4.98039
					CHANNELS 6 Xposition Yposition Zposition Zrotation Xrotation Yrotation 
					JOINT UpperArm_L
					{
						OFFSET 5.34809 0.0 0.0
						CHANNELS 6 Xposition Yposition Zposition Zrotation Xrotation Yrotation 
						JOINT LowerArm_L
						{
							OFFSET 24.3286 1.87007e-05 0.0
							CHANNELS 6 Xposition Yposition Zposition Zrotation Xrotation Yrotation 
							JOINT Hand_L
							{
								OFFSET 22.2916 0.0 0.0
								CHANNELS 6 Xposition Yposition Zposition Zrotation Xrotation Yrotation 
								End Site
								{
									OFFSET 0.0 0.0 0.0
								}
							}
						}
					}
				}
				JOINT Shoulder_R
				{
					OFFSET 12.9945 -0.242716 -4.98039
					CHANNELS 6 Xposition Yposition Zposition Zrotation Xrotation Yrotation 
					JOINT UpperArm_R
					{
						OFFSET -5.34813 0.0 0.0
						CHANNELS 6 Xposition Yposition Zposition Zrotation Xrotation Yrotation 
						JOINT LowerArm_R
						{
							OFFSET -24.3289 0.000322201 0.0
							CHANNELS 6 Xposition Yposition Zposition Zrotation Xrotation Yrotation 
							JOINT Hand_R
							{
								OFFSET -22.2915 -0.000108084 0.0
								CHANNELS 6 Xposition Yposition Zposition Zrotation Xrotation Yrotation 
								End Site
								{
									OFFSET 0.0 0.0 0.0
								}
							}
						}
					}
				}
			}
		}
		JOINT UpperLeg_L
		{
			OFFSET -2.19248 -6.46944 0.0
			CHANNELS 6 Xposition Yposition Zposition Zrotation Xrotation Yrotation 
			JOINT LowerLeg_L
			{
				OFFSET 39.0811 0.0 -1.23785e-05
				CHANNELS 6 Xposition Yposition Zposition Zrotation Xrotation Yrotation 
				JOINT Foot_L
				{
					OFFSET 40.9854 0.0 -1.26872e-05
					CHANNELS 6 Xposition Yposition Zposition Zrotation Xrotation Yrotation 
					JOINT Toes_L
					{
						OFFSET 11.7543 0.0 0.0
						CHANNELS 6 Xposition Yposition Zposition Zrotation Xrotation Yrotation 
						End Site
						{
							OFFSET 0.0 0.0 0.0
						}
					}
				}
			}
		}
		JOINT UpperLeg_R
		{
			OFFSET -2.19251 6.46944 0.0
			CHANNELS 6 Xposition Yposition Zposition Zrotation Xrotation Yrotation 
			JOINT LowerLeg_R
			{
				OFFSET -39.0811 -0.00228153 -0.0401928
				CHANNELS 6 Xposition Yposition Zposition Zrotation Xrotation Yrotation 
				JOINT Foot_R
				{
					OFFSET -40.9854 0.0 0.0
					CHANNELS 6 Xposition Yposition Zposition Zrotation Xrotation Yrotation 
					JOINT Toes_R
					{
						OFFSET -11.7543 0.0 0.0
						CHANNELS 6 Xposition Yposition Zposition Zrotation Xrotation Yrotation 
						End Site
						{
							OFFSET 0.0 0.0 0.0
						}
					}
				}
			}
		}
	}
}
MOTION
Frames:	4
Frame Time:	0.0333333
0.000000 0.000000 0.000000 0.000000 0.000000 -0.000000 -3.406670 90.976300 39.678100 -88.587400 9.605430 179.098000 15.735700 0.000005 -0.000001 138.308000 84.971500 -137.413000 8.984550 -0.406207 -0.000000 -1.135290 7.438790 1.864790 16.377300 -0.000001 -0.000001 0.539181 2.943850 -0.544436 6.456720 -0.000001 -0.000000 -10.920600 0.533430 -2.096190 12.994200 -0.242716 4.980390 -92.537800 6.006020 -67.042400 5.348090 -0.000007 -0.000001 -50.003700 -11.211400 19.729500 24.328600 0.000019 0.000005 3.399410 31.142700 -6.552050 22.291600 -0.000001 0.000005 -0.835453 4.875700 9.812950 12.994500 -0.242716 -4.980390 89.607600 1.254430 -72.627500 -5.348130 -0.000001 -0.000004 -56.760800 13.668500 -38.842400 -24.328900 0.000322 -0.000009 -3.605810 -3.958760 -42.379500 -22.291500 -0.000108 -0.000004 11.703300 5.484850 -5.931380 -2.192480 -6.469440 -0.000000 -177.179000 -8.937250 -20.925400 39.081100 -0.000007 -0.000012 0.004713 -0.040611 6.620870 40.985400 -0.000006 -0.000013 -9.296120 9.178820 -62.883900 11.754300 -0.000000 0.000003 0.002335 0.063092 -14.017800 -2.192510 6.469440 -0.000001 176.013000 4.707020 -169.177000 -39.081100 -0.002282 -0.040193 -0.026410 0.073840 21.929700 -40.985400 0.000008 0.000006 -4.356090 12.197800 -60.803500 -11.754300 -0.000006 -0.000006 -0.041089 -0.264420 -27.438100
0.000000 0.000000 0.000000 0.000000 0.000000 -0.000000 -4.306790 89.795700 34.380500 -90.397400 8.833080 178.245000 15.735700 0.000005 -0.000001 138.332000 85.539900 -138.106000 8.984550 -0.406207 -0.000000 -1.852870 6.642760 0.560669 16.377300 -0.000001 -0.000001 1.005840 2.854860 -0.446818 6.456720 -0.000001 -0.000000 -12.067300 0.903404 -1.861250 12.994200 -0.242716 4.980390 -93.049100 7.474500 -67.731100 5.348090 -0.000007 -0.000001 -48.612100 -10.071700 19.325400 24.328600 0.000019 0.000005 2.081710 31.667100 -3.960850 22.291600 -0.000001 0.000005 8.733670 4.530440 16.023600 12.994500 -0.242716 -4.980390 89.202900 2.495620 -72.280500 -5.348130 -0.000001 -0.000004 -57.653000 13.495600 -35.783900 -24.328900 0.000322 -0.000009 -3.932710 -4.197230 -43.198700 -22.291500 -0.000108 -0.000004 13.165000 5.508060 -6.859490 -2.192480 -6.469440 -0.000000 178.712000 -7.767560 -29.809600 39.081100 -0.000007 -0.000012 0.030336 -0.070737 23.212000 40.985400 -0.000006 -0.000013 -0.012961 8.826850 -59.272700 11.754300 -0.000000 0.000003 0.002317 0.061903 -14.066000 -2.192510 6.469440 -0.000001 173.453000 3.677530 -169.417000 -39.081100 -0.002282 -0.040193 -0.010512 0.028686 25.727400 -40.985400 0.000008 0.000006 -5.374610 11.154700 -59.385800 -11.754300 -0.000006 -0.000006 -0.088597 -0.415337 -33.855700
0.000000 0.000000 0.000000 0.000000 0.000000 -0.000000 -5.069640 88.849800 28.565000 -92.559100 8.390840 179.002000 15.735700 0.000005 -0.000001 134.303000 85.800900 -134.984000 8.984550 -0.406207 -0.000000 -1.722900 5.920710 -1.273730 16.377300 -0.000001 -0.000001 1.164770 2.775700 -0.196220 6.456720 -0.000001 -0.000000 -12.373800 1.149580 -0.756313 12.994200 -0.242716 4.980390 -93.496400 8.928920 -68.511900 5.348090 -0.000007 -0.000001 -48.130600 -9.075740 17.880500 24.328600 0.000019 0.000005 1.415150 33.398300 -2.569620 22.291600 -0.000001 0.000005 14.232300 4.037380 23.669500 12.994500 -0.242716 -4.980390 88.537300 4.548660 -72.152600 -5.348130 -0.000001 -0.000004 -58.646500 13.734800 -30.488000 -24.328900 0.000322 -0.000009 -3.093070 -3.335990 -42.868100 -22.291500 -0.000108 -0.000004 12.593000 5.527030 -7.667270 -2.192480 -6.469440 -0.000000 176.044000 -6.061120 -31.252400 39.081100 -0.000007 -0.000012 0.215072 -0.334249 32.759300 40.985400 -0.000006 -0.000013 2.241980 8.529520 -60.892400 11.754300 -0.000000 0.000003 0.002486 0.085781 -13.097900 -2.192510 6.469440 -0.000001 171.741000 0.590336 -169.731000 -39.081100 -0.002282 -0.040193 0.025967 -0.036802 31.631200 -40.985400 0.000008 0.000006 -5.703810 7.225560 -54.292600 -11.754300 -0.000006 -0.000006 -0.167772 -0.588677 -41.587400
0.000000 0.000000 0.000000 0.000000 0.000000 -0.000000 -5.589830 88.404900 22.745600 -94.145100 7.675550 -178.601000 15.735700 0.000005 -0.000001 123.295000 85.431800 -124.610000 8.984550 -0.406207 -0.000000 -0.067013 5.104000 -2.627050 16.377300 -0.000001 -0.000001 0.723590 2.668170 -0.371518 6.456720 -0.000001 -0.000000 -12.718700 1.141490 0.384094 12.994200 -0.242716 4.980390 -93.700500 9.767960 -69.132300 5.348090 -0.000007 -0.000001 -50.430600 -7.568450 14.377100 24.328600 0.000019 0.000005 1.568790 32.686300 -2.903210 22.291600 -0.000001 0.000005 14.398000 3.804950 26.932300 12.994500 -0.242716 -4.980390 88.031000 5.967860 -71.703700 -5.348130 -0.000001 -0.000004 -60.235200 14.457700 -24.655700 -24.328900 0.000322 -0.000009 -1.492230 -1.754350 -40.358400 -22.291500 -0.000108 -0.000004 10.893500 5.512380 -7.034540 -2.192480 -6.469440 -0.000000 174.242000 -4.837090 -28.018200 39.081100 -0.000007 -0.000012 0.397549 -0.502214 38.365600 40.985400 -0.000006 -0.000013 3.657000 8.054040 -65.929000 11.754300 -0.000000 0.000003 0.001492 0.136852 -11.027000 -2.192510 6.469440 -0.000001 170.519000 -0.702862 -171.108000 -39.081100 -0.002282 -0.040193 0.083628 -0.093490 40.677800 -40.985400 0.000008 0.000006 -5.207100 3.319230 -44.771500 -11.754300 -0.000006 -0.000006 -0.116708 -0.484249 -36.873300
